# xmcd
#
# Track frame offsets: 
#        150
#        16901
#        39984
#        56650
#        76695
#        93834
#        111271
#        123704
#        144389
#        156867
#        174645
#        189898
#        204479
#        223068
#
# Disc length: 3223 seconds
#
# Revision: 0
# Processed by: cddbd v1.5.2PL0 Copyright (c) Steve Scherf et al.
# Submitted via: ExactAudioCopy v0.99pb3
#
DISCID=b70c950e
DTITLE=Jehan - La vie en Blues
DYEAR=2011
DGENRE=Blues
TTITLE0=Jehan - Je n'aurais pas le temps (03:43)
TTITLE1=Jehan - Chanson pour chanter (05:07)
TTITLE2=Jehan - Bahia (03:42)
TTITLE3=Jehan - Marie Jeanne (04:27)
TTITLE4=Jehan - Il est mort le soleil (03:48)
TTITLE5=Jehan - Le lac Saint Sebastien (03:52)
TTITLE6=Jehan - Le train du nord (02:45)
TTITLE7=Jehan - Toulouse (04:35)
TTITLE8=Jehan - Le fossoyeur (02:46)
TTITLE9=Jehan - Ton cul est rond (03:57)
TTITLE10=Jehan - La valse a Milteau (03:23)
TTITLE11=Jehan - Pour oublier (03:14)
TTITLE12=Jehan - De bien belles nuits (04:07)
TTITLE13=Jehan - L'amour est cerise (04:09)
EXTD=
EXTT0=
EXTT1=
EXTT2=
EXTT3=
EXTT4=
EXTT5=
EXTT6=
EXTT7=
EXTT8=
EXTT9=
EXTT10=
EXTT11=
EXTT12=
EXTT13=
PLAYORDER=
